<svg width="753" height="87" viewBox="0 0 753 87" fill="none" xmlns="http://www.w3.org/2000/svg">
<path d="M24.048 9.248L19.368 26H15.408L12.264 14.072L8.976 26L5.04 26.024L0.528 9.248H4.128L7.08 22.256L10.488 9.248H14.232L17.448 22.184L20.424 9.248H24.048ZM39.3219 19.064C39.3219 19.544 39.2899 19.976 39.2259 20.36H29.5059C29.5859 21.32 29.9219 22.072 30.5139 22.616C31.1059 23.16 31.8339 23.432 32.6979 23.432C33.9459 23.432 34.8339 22.896 35.3619 21.824H38.9859C38.6019 23.104 37.8659 24.16 36.7779 24.992C35.6899 25.808 34.3539 26.216 32.7699 26.216C31.4899 26.216 30.3379 25.936 29.3139 25.376C28.3059 24.8 27.5139 23.992 26.9379 22.952C26.3779 21.912 26.0979 20.712 26.0979 19.352C26.0979 17.976 26.3779 16.768 26.9379 15.728C27.4979 14.688 28.2819 13.888 29.2899 13.328C30.2979 12.768 31.4579 12.488 32.7699 12.488C34.0339 12.488 35.1619 12.76 36.1539 13.304C37.1619 13.848 37.9379 14.624 38.4819 15.632C39.0419 16.624 39.3219 17.768 39.3219 19.064ZM35.8419 18.104C35.8259 17.24 35.5139 16.552 34.9059 16.04C34.2979 15.512 33.5539 15.248 32.6739 15.248C31.8419 15.248 31.1379 15.504 30.5619 16.016C30.0019 16.512 29.6579 17.208 29.5299 18.104H35.8419ZM45.8544 14.648C46.2864 14.008 46.8784 13.488 47.6304 13.088C48.3984 12.688 49.2704 12.488 50.2464 12.488C51.3824 12.488 52.4064 12.768 53.3184 13.328C54.2464 13.888 54.9744 14.688 55.5024 15.728C56.0464 16.752 56.3184 17.944 56.3184 19.304C56.3184 20.664 56.0464 21.872 55.5024 22.928C54.9744 23.968 54.2464 24.776 53.3184 25.352C52.4064 25.928 51.3824 26.216 50.2464 26.216C49.2544 26.216 48.3824 26.024 47.6304 25.64C46.8944 25.24 46.3024 24.728 45.8544 24.104V26H42.4944V8.24H45.8544V14.648ZM52.8864 19.304C52.8864 18.504 52.7184 17.816 52.3824 17.24C52.0624 16.648 51.6304 16.2 51.0864 15.896C50.5584 15.592 49.9824 15.44 49.3584 15.44C48.7504 15.44 48.1744 15.6 47.6304 15.92C47.1024 16.224 46.6704 16.672 46.3344 17.264C46.0144 17.856 45.8544 18.552 45.8544 19.352C45.8544 20.152 46.0144 20.848 46.3344 21.44C46.6704 22.032 47.1024 22.488 47.6304 22.808C48.1744 23.112 48.7504 23.264 49.3584 23.264C49.9824 23.264 50.5584 23.104 51.0864 22.784C51.6304 22.464 52.0624 22.008 52.3824 21.416C52.7184 20.824 52.8864 20.12 52.8864 19.304ZM64.5681 26.216C63.4801 26.216 62.5041 26.024 61.6401 25.64C60.7761 25.24 60.0881 24.704 59.5761 24.032C59.0801 23.36 58.8081 22.616 58.7601 21.8H62.1441C62.2081 22.312 62.4561 22.736 62.8881 23.072C63.3361 23.408 63.8881 23.576 64.5441 23.576C65.1841 23.576 65.6801 23.448 66.0321 23.192C66.4001 22.936 66.5841 22.608 66.5841 22.208C66.5841 21.776 66.3601 21.456 65.9121 21.248C65.4801 21.024 64.7841 20.784 63.8241 20.528C62.8321 20.288 62.0161 20.04 61.3761 19.784C60.7521 19.528 60.2081 19.136 59.7441 18.608C59.2961 18.08 59.0721 17.368 59.0721 16.472C59.0721 15.736 59.2801 15.064 59.6961 14.456C60.1281 13.848 60.7361 13.368 61.5201 13.016C62.3201 12.664 63.2561 12.488 64.3281 12.488C65.9121 12.488 67.1761 12.888 68.1201 13.688C69.0641 14.472 69.5841 15.536 69.6801 16.88H66.4641C66.4161 16.352 66.1921 15.936 65.7921 15.632C65.4081 15.312 64.8881 15.152 64.2321 15.152C63.6241 15.152 63.1521 15.264 62.8161 15.488C62.4961 15.712 62.3361 16.024 62.3361 16.424C62.3361 16.872 62.5601 17.216 63.0081 17.456C63.4561 17.68 64.1521 17.912 65.0961 18.152C66.0561 18.392 66.8481 18.64 67.4721 18.896C68.0961 19.152 68.6321 19.552 69.0801 20.096C69.5441 20.624 69.7841 21.328 69.8001 22.208C69.8001 22.976 69.5841 23.664 69.1521 24.272C68.7361 24.88 68.1281 25.36 67.3281 25.712C66.5441 26.048 65.6241 26.216 64.5681 26.216ZM74.9822 11.12C74.3902 11.12 73.8942 10.936 73.4942 10.568C73.1102 10.184 72.9182 9.712 72.9182 9.152C72.9182 8.592 73.1102 8.128 73.4942 7.76C73.8942 7.376 74.3902 7.184 74.9822 7.184C75.5742 7.184 76.0622 7.376 76.4462 7.76C76.8462 8.128 77.0462 8.592 77.0462 9.152C77.0462 9.712 76.8462 10.184 76.4462 10.568C76.0622 10.936 75.5742 11.12 74.9822 11.12ZM76.6382 12.704V26H73.2782V12.704H76.6382ZM84.5899 15.464V21.896C84.5899 22.344 84.6939 22.672 84.9019 22.88C85.1259 23.072 85.4939 23.168 86.0059 23.168H87.5659V26H85.4539C82.6219 26 81.2059 24.624 81.2059 21.872V15.464H79.6219V12.704H81.2059V9.416H84.5899V12.704H87.5659V15.464H84.5899ZM103.063 19.064C103.063 19.544 103.031 19.976 102.967 20.36H93.2466C93.3266 21.32 93.6626 22.072 94.2546 22.616C94.8466 23.16 95.5746 23.432 96.4386 23.432C97.6866 23.432 98.5746 22.896 99.1026 21.824H102.727C102.343 23.104 101.607 24.16 100.519 24.992C99.4306 25.808 98.0946 26.216 96.5106 26.216C95.2306 26.216 94.0786 25.936 93.0546 25.376C92.0466 24.8 91.2546 23.992 90.6786 22.952C90.1186 21.912 89.8386 20.712 89.8386 19.352C89.8386 17.976 90.1186 16.768 90.6786 15.728C91.2386 14.688 92.0226 13.888 93.0306 13.328C94.0386 12.768 95.1986 12.488 96.5106 12.488C97.7746 12.488 98.9026 12.76 99.8946 13.304C100.903 13.848 101.679 14.624 102.223 15.632C102.783 16.624 103.063 17.768 103.063 19.064ZM99.5826 18.104C99.5666 17.24 99.2546 16.552 98.6466 16.04C98.0386 15.512 97.2946 15.248 96.4146 15.248C95.5826 15.248 94.8786 15.504 94.3026 16.016C93.7426 16.512 93.3986 17.208 93.2706 18.104H99.5826ZM118.53 9.248C120.29 9.248 121.834 9.592 123.162 10.28C124.506 10.968 125.538 11.952 126.258 13.232C126.994 14.496 127.362 15.968 127.362 17.648C127.362 19.328 126.994 20.8 126.258 22.064C125.538 23.312 124.506 24.28 123.162 24.968C121.834 25.656 120.29 26 118.53 26H112.674V9.248H118.53ZM118.41 23.144C120.17 23.144 121.53 22.664 122.49 21.704C123.45 20.744 123.93 19.392 123.93 17.648C123.93 15.904 123.45 14.544 122.49 13.568C121.53 12.576 120.17 12.08 118.41 12.08H116.034V23.144H118.41ZM142.957 19.064C142.957 19.544 142.925 19.976 142.861 20.36H133.141C133.221 21.32 133.557 22.072 134.149 22.616C134.741 23.16 135.469 23.432 136.333 23.432C137.581 23.432 138.469 22.896 138.997 21.824H142.621C142.237 23.104 141.501 24.16 140.413 24.992C139.325 25.808 137.989 26.216 136.405 26.216C135.125 26.216 133.973 25.936 132.949 25.376C131.941 24.8 131.149 23.992 130.573 22.952C130.013 21.912 129.733 20.712 129.733 19.352C129.733 17.976 130.013 16.768 130.573 15.728C131.133 14.688 131.917 13.888 132.925 13.328C133.933 12.768 135.093 12.488 136.405 12.488C137.669 12.488 138.797 12.76 139.789 13.304C140.797 13.848 141.573 14.624 142.117 15.632C142.677 16.624 142.957 17.768 142.957 19.064ZM139.477 18.104C139.461 17.24 139.149 16.552 138.541 16.04C137.933 15.512 137.189 15.248 136.309 15.248C135.477 15.248 134.773 15.504 134.197 16.016C133.637 16.512 133.293 17.208 133.165 18.104H139.477ZM151.217 26.216C150.129 26.216 149.153 26.024 148.289 25.64C147.425 25.24 146.737 24.704 146.225 24.032C145.729 23.36 145.457 22.616 145.409 21.8H148.793C148.857 22.312 149.105 22.736 149.537 23.072C149.985 23.408 150.537 23.576 151.193 23.576C151.833 23.576 152.329 23.448 152.681 23.192C153.049 22.936 153.233 22.608 153.233 22.208C153.233 21.776 153.009 21.456 152.561 21.248C152.129 21.024 151.433 20.784 150.473 20.528C149.481 20.288 148.665 20.04 148.025 19.784C147.401 19.528 146.857 19.136 146.393 18.608C145.945 18.08 145.721 17.368 145.721 16.472C145.721 15.736 145.929 15.064 146.345 14.456C146.777 13.848 147.385 13.368 148.169 13.016C148.969 12.664 149.905 12.488 150.977 12.488C152.561 12.488 153.825 12.888 154.769 13.688C155.713 14.472 156.233 15.536 156.329 16.88H153.113C153.065 16.352 152.841 15.936 152.441 15.632C152.057 15.312 151.537 15.152 150.881 15.152C150.273 15.152 149.801 15.264 149.465 15.488C149.145 15.712 148.985 16.024 148.985 16.424C148.985 16.872 149.209 17.216 149.657 17.456C150.105 17.68 150.801 17.912 151.745 18.152C152.705 18.392 153.497 18.64 154.121 18.896C154.745 19.152 155.281 19.552 155.729 20.096C156.193 20.624 156.433 21.328 156.449 22.208C156.449 22.976 156.233 23.664 155.801 24.272C155.385 24.88 154.777 25.36 153.977 25.712C153.193 26.048 152.273 26.216 151.217 26.216ZM161.632 11.12C161.04 11.12 160.544 10.936 160.144 10.568C159.76 10.184 159.568 9.712 159.568 9.152C159.568 8.592 159.76 8.128 160.144 7.76C160.544 7.376 161.04 7.184 161.632 7.184C162.224 7.184 162.712 7.376 163.096 7.76C163.496 8.128 163.696 8.592 163.696 9.152C163.696 9.712 163.496 10.184 163.096 10.568C162.712 10.936 162.224 11.12 161.632 11.12ZM163.288 12.704V26H159.928V12.704H163.288ZM172.535 12.488C173.527 12.488 174.399 12.688 175.151 13.088C175.903 13.472 176.495 13.976 176.927 14.6V12.704H180.311V26.096C180.311 27.328 180.063 28.424 179.567 29.384C179.071 30.36 178.327 31.128 177.335 31.688C176.343 32.264 175.143 32.552 173.735 32.552C171.847 32.552 170.295 32.112 169.079 31.232C167.879 30.352 167.199 29.152 167.039 27.632H170.375C170.551 28.24 170.927 28.72 171.503 29.072C172.095 29.44 172.807 29.624 173.639 29.624C174.615 29.624 175.407 29.328 176.015 28.736C176.623 28.16 176.927 27.28 176.927 26.096V24.032C176.495 24.656 175.895 25.176 175.127 25.592C174.375 26.008 173.511 26.216 172.535 26.216C171.415 26.216 170.391 25.928 169.463 25.352C168.535 24.776 167.799 23.968 167.255 22.928C166.727 21.872 166.463 20.664 166.463 19.304C166.463 17.96 166.727 16.768 167.255 15.728C167.799 14.688 168.527 13.888 169.439 13.328C170.367 12.768 171.399 12.488 172.535 12.488ZM176.927 19.352C176.927 18.536 176.767 17.84 176.447 17.264C176.127 16.672 175.695 16.224 175.151 15.92C174.607 15.6 174.023 15.44 173.399 15.44C172.775 15.44 172.199 15.592 171.671 15.896C171.143 16.2 170.711 16.648 170.375 17.24C170.055 17.816 169.895 18.504 169.895 19.304C169.895 20.104 170.055 20.808 170.375 21.416C170.711 22.008 171.143 22.464 171.671 22.784C172.215 23.104 172.791 23.264 173.399 23.264C174.023 23.264 174.607 23.112 175.151 22.808C175.695 22.488 176.127 22.04 176.447 21.464C176.767 20.872 176.927 20.168 176.927 19.352ZM191.681 12.512C193.265 12.512 194.545 13.016 195.521 14.024C196.497 15.016 196.985 16.408 196.985 18.2V26H193.625V18.656C193.625 17.6 193.361 16.792 192.833 16.232C192.305 15.656 191.585 15.368 190.673 15.368C189.745 15.368 189.009 15.656 188.465 16.232C187.937 16.792 187.673 17.6 187.673 18.656V26H184.313V12.704H187.673V14.36C188.121 13.784 188.689 13.336 189.377 13.016C190.081 12.68 190.849 12.512 191.681 12.512Z" fill="black"/>
<rect y="54" width="753" height="12" rx="6" fill="#EDECEC"/>
<rect y="54" width="669" height="12" rx="6" fill="#FF6300"/>
<g filter="url(#filter0_d_1_1761)">
<circle cx="668" cy="60" r="16" fill="#EDECEC"/>
<circle cx="668" cy="60" r="14.5" stroke="#FF6300" stroke-width="3"/>
</g>
<defs>
<filter id="filter0_d_1_1761" x="645" y="41" width="46" height="46" filterUnits="userSpaceOnUse" color-interpolation-filters="sRGB">
<feFlood flood-opacity="0" result="BackgroundImageFix"/>
<feColorMatrix in="SourceAlpha" type="matrix" values="0 0 0 0 0 0 0 0 0 0 0 0 0 0 0 0 0 0 127 0" result="hardAlpha"/>
<feOffset dy="4"/>
<feGaussianBlur stdDeviation="3.5"/>
<feComposite in2="hardAlpha" operator="out"/>
<feColorMatrix type="matrix" values="0 0 0 0 0 0 0 0 0 0 0 0 0 0 0 0 0 0 0.2 0"/>
<feBlend mode="normal" in2="BackgroundImageFix" result="effect1_dropShadow_1_1761"/>
<feBlend mode="normal" in="SourceGraphic" in2="effect1_dropShadow_1_1761" result="shape"/>
</filter>
</defs>
</svg>
