<svg width="753" height="87" viewBox="0 0 753 87" fill="none" xmlns="http://www.w3.org/2000/svg">
<path d="M13.32 14.288C12.936 13.584 12.408 13.048 11.736 12.68C11.064 12.312 10.28 12.128 9.384 12.128C8.392 12.128 7.512 12.352 6.744 12.8C5.976 13.248 5.376 13.888 4.944 14.72C4.512 15.552 4.296 16.512 4.296 17.6C4.296 18.72 4.512 19.696 4.944 20.528C5.392 21.36 6.008 22 6.792 22.448C7.576 22.896 8.488 23.12 9.528 23.12C10.808 23.12 11.856 22.784 12.672 22.112C13.488 21.424 14.024 20.472 14.28 19.256H8.52V16.688H17.592V19.616C17.368 20.784 16.888 21.864 16.152 22.856C15.416 23.848 14.464 24.648 13.296 25.256C12.144 25.848 10.848 26.144 9.408 26.144C7.792 26.144 6.328 25.784 5.016 25.064C3.72 24.328 2.696 23.312 1.944 22.016C1.208 20.72 0.84 19.248 0.84 17.6C0.84 15.952 1.208 14.48 1.944 13.184C2.696 11.872 3.72 10.856 5.016 10.136C6.328 9.4 7.784 9.032 9.384 9.032C11.272 9.032 12.912 9.496 14.304 10.424C15.696 11.336 16.656 12.624 17.184 14.288H13.32ZM24.1579 14.768C24.5899 14.064 25.1499 13.512 25.8379 13.112C26.5419 12.712 27.3419 12.512 28.2379 12.512V16.04H27.3499C26.2939 16.04 25.4939 16.288 24.9499 16.784C24.4219 17.28 24.1579 18.144 24.1579 19.376V26H20.7979V12.704H24.1579V14.768ZM30.357 19.304C30.357 17.96 30.621 16.768 31.149 15.728C31.693 14.688 32.421 13.888 33.333 13.328C34.261 12.768 35.293 12.488 36.429 12.488C37.421 12.488 38.285 12.688 39.021 13.088C39.773 13.488 40.373 13.992 40.821 14.6V12.704H44.205V26H40.821V24.056C40.389 24.68 39.789 25.2 39.021 25.616C38.269 26.016 37.397 26.216 36.405 26.216C35.285 26.216 34.261 25.928 33.333 25.352C32.421 24.776 31.693 23.968 31.149 22.928C30.621 21.872 30.357 20.664 30.357 19.304ZM40.821 19.352C40.821 18.536 40.661 17.84 40.341 17.264C40.021 16.672 39.589 16.224 39.045 15.92C38.501 15.6 37.917 15.44 37.293 15.44C36.669 15.44 36.093 15.592 35.565 15.896C35.037 16.2 34.605 16.648 34.269 17.24C33.949 17.816 33.789 18.504 33.789 19.304C33.789 20.104 33.949 20.808 34.269 21.416C34.605 22.008 35.037 22.464 35.565 22.784C36.109 23.104 36.685 23.264 37.293 23.264C37.917 23.264 38.501 23.112 39.045 22.808C39.589 22.488 40.021 22.04 40.341 21.464C40.661 20.872 40.821 20.168 40.821 19.352ZM51.5666 14.624C51.9986 14.016 52.5906 13.512 53.3426 13.112C54.1106 12.696 54.9826 12.488 55.9586 12.488C57.0946 12.488 58.1186 12.768 59.0306 13.328C59.9586 13.888 60.6866 14.688 61.2146 15.728C61.7586 16.752 62.0306 17.944 62.0306 19.304C62.0306 20.664 61.7586 21.872 61.2146 22.928C60.6866 23.968 59.9586 24.776 59.0306 25.352C58.1186 25.928 57.0946 26.216 55.9586 26.216C54.9826 26.216 54.1186 26.016 53.3666 25.616C52.6306 25.216 52.0306 24.712 51.5666 24.104V32.336H48.2066V12.704H51.5666V14.624ZM58.5986 19.304C58.5986 18.504 58.4306 17.816 58.0946 17.24C57.7746 16.648 57.3426 16.2 56.7986 15.896C56.2706 15.592 55.6946 15.44 55.0706 15.44C54.4626 15.44 53.8866 15.6 53.3426 15.92C52.8146 16.224 52.3826 16.672 52.0466 17.264C51.7266 17.856 51.5666 18.552 51.5666 19.352C51.5666 20.152 51.7266 20.848 52.0466 21.44C52.3826 22.032 52.8146 22.488 53.3426 22.808C53.8866 23.112 54.4626 23.264 55.0706 23.264C55.6946 23.264 56.2706 23.104 56.7986 22.784C57.3426 22.464 57.7746 22.008 58.0946 21.416C58.4306 20.824 58.5986 20.12 58.5986 19.304ZM72.6803 12.512C73.6883 12.512 74.5843 12.736 75.3683 13.184C76.1523 13.616 76.7603 14.264 77.1923 15.128C77.6403 15.976 77.8643 17 77.8643 18.2V26H74.5043V18.656C74.5043 17.6 74.2403 16.792 73.7123 16.232C73.1843 15.656 72.4643 15.368 71.5523 15.368C70.6243 15.368 69.8883 15.656 69.3443 16.232C68.8163 16.792 68.5523 17.6 68.5523 18.656V26H65.1923V8.24H68.5523V14.36C68.9843 13.784 69.5603 13.336 70.2803 13.016C71.0003 12.68 71.8003 12.512 72.6803 12.512ZM83.4834 11.12C82.8914 11.12 82.3954 10.936 81.9954 10.568C81.6114 10.184 81.4194 9.712 81.4194 9.152C81.4194 8.592 81.6114 8.128 81.9954 7.76C82.3954 7.376 82.8914 7.184 83.4834 7.184C84.0754 7.184 84.5634 7.376 84.9474 7.76C85.3474 8.128 85.5474 8.592 85.5474 9.152C85.5474 9.712 85.3474 10.184 84.9474 10.568C84.5634 10.936 84.0754 11.12 83.4834 11.12ZM85.1394 12.704V26H81.7794V12.704H85.1394ZM88.3151 19.352C88.3151 17.976 88.5951 16.776 89.1551 15.752C89.7151 14.712 90.4911 13.912 91.4831 13.352C92.4751 12.776 93.6111 12.488 94.8911 12.488C96.5391 12.488 97.8991 12.904 98.9711 13.736C100.059 14.552 100.787 15.704 101.155 17.192H97.5311C97.3391 16.616 97.0111 16.168 96.5471 15.848C96.0991 15.512 95.5391 15.344 94.8671 15.344C93.9071 15.344 93.1471 15.696 92.5871 16.4C92.0271 17.088 91.7471 18.072 91.7471 19.352C91.7471 20.616 92.0271 21.6 92.5871 22.304C93.1471 22.992 93.9071 23.336 94.8671 23.336C96.2271 23.336 97.1151 22.728 97.5311 21.512H101.155C100.787 22.952 100.059 24.096 98.9711 24.944C97.8831 25.792 96.5231 26.216 94.8911 26.216C93.6111 26.216 92.4751 25.936 91.4831 25.376C90.4911 24.8 89.7151 24 89.1551 22.976C88.5951 21.936 88.3151 20.728 88.3151 19.352ZM116.631 9.248C118.391 9.248 119.935 9.592 121.263 10.28C122.607 10.968 123.639 11.952 124.359 13.232C125.095 14.496 125.463 15.968 125.463 17.648C125.463 19.328 125.095 20.8 124.359 22.064C123.639 23.312 122.607 24.28 121.263 24.968C119.935 25.656 118.391 26 116.631 26H110.775V9.248H116.631ZM116.511 23.144C118.271 23.144 119.631 22.664 120.591 21.704C121.551 20.744 122.031 19.392 122.031 17.648C122.031 15.904 121.551 14.544 120.591 13.568C119.631 12.576 118.271 12.08 116.511 12.08H114.135V23.144H116.511ZM141.059 19.064C141.059 19.544 141.027 19.976 140.963 20.36H131.243C131.323 21.32 131.659 22.072 132.251 22.616C132.843 23.16 133.571 23.432 134.435 23.432C135.683 23.432 136.571 22.896 137.099 21.824H140.723C140.339 23.104 139.603 24.16 138.515 24.992C137.427 25.808 136.091 26.216 134.507 26.216C133.227 26.216 132.075 25.936 131.051 25.376C130.043 24.8 129.251 23.992 128.675 22.952C128.115 21.912 127.835 20.712 127.835 19.352C127.835 17.976 128.115 16.768 128.675 15.728C129.235 14.688 130.019 13.888 131.027 13.328C132.035 12.768 133.195 12.488 134.507 12.488C135.771 12.488 136.899 12.76 137.891 13.304C138.899 13.848 139.675 14.624 140.219 15.632C140.779 16.624 141.059 17.768 141.059 19.064ZM137.579 18.104C137.563 17.24 137.251 16.552 136.643 16.04C136.035 15.512 135.291 15.248 134.411 15.248C133.579 15.248 132.875 15.504 132.299 16.016C131.739 16.512 131.395 17.208 131.267 18.104H137.579ZM149.319 26.216C148.231 26.216 147.255 26.024 146.391 25.64C145.527 25.24 144.839 24.704 144.327 24.032C143.831 23.36 143.559 22.616 143.511 21.8H146.895C146.959 22.312 147.207 22.736 147.639 23.072C148.087 23.408 148.639 23.576 149.295 23.576C149.935 23.576 150.431 23.448 150.783 23.192C151.151 22.936 151.335 22.608 151.335 22.208C151.335 21.776 151.111 21.456 150.663 21.248C150.231 21.024 149.535 20.784 148.575 20.528C147.583 20.288 146.767 20.04 146.127 19.784C145.503 19.528 144.959 19.136 144.495 18.608C144.047 18.08 143.823 17.368 143.823 16.472C143.823 15.736 144.031 15.064 144.447 14.456C144.879 13.848 145.487 13.368 146.271 13.016C147.071 12.664 148.007 12.488 149.079 12.488C150.663 12.488 151.927 12.888 152.871 13.688C153.815 14.472 154.335 15.536 154.431 16.88H151.215C151.167 16.352 150.943 15.936 150.543 15.632C150.159 15.312 149.639 15.152 148.983 15.152C148.375 15.152 147.903 15.264 147.567 15.488C147.247 15.712 147.087 16.024 147.087 16.424C147.087 16.872 147.311 17.216 147.759 17.456C148.207 17.68 148.903 17.912 149.847 18.152C150.807 18.392 151.599 18.64 152.223 18.896C152.847 19.152 153.383 19.552 153.831 20.096C154.295 20.624 154.535 21.328 154.551 22.208C154.551 22.976 154.335 23.664 153.903 24.272C153.487 24.88 152.879 25.36 152.079 25.712C151.295 26.048 150.375 26.216 149.319 26.216ZM159.733 11.12C159.141 11.12 158.645 10.936 158.245 10.568C157.861 10.184 157.669 9.712 157.669 9.152C157.669 8.592 157.861 8.128 158.245 7.76C158.645 7.376 159.141 7.184 159.733 7.184C160.325 7.184 160.813 7.376 161.197 7.76C161.597 8.128 161.797 8.592 161.797 9.152C161.797 9.712 161.597 10.184 161.197 10.568C160.813 10.936 160.325 11.12 159.733 11.12ZM161.389 12.704V26H158.029V12.704H161.389ZM170.637 12.488C171.629 12.488 172.501 12.688 173.253 13.088C174.005 13.472 174.597 13.976 175.029 14.6V12.704H178.413V26.096C178.413 27.328 178.165 28.424 177.669 29.384C177.173 30.36 176.429 31.128 175.437 31.688C174.445 32.264 173.245 32.552 171.837 32.552C169.949 32.552 168.397 32.112 167.181 31.232C165.981 30.352 165.301 29.152 165.141 27.632H168.477C168.653 28.24 169.029 28.72 169.605 29.072C170.197 29.44 170.909 29.624 171.741 29.624C172.717 29.624 173.509 29.328 174.117 28.736C174.725 28.16 175.029 27.28 175.029 26.096V24.032C174.597 24.656 173.997 25.176 173.229 25.592C172.477 26.008 171.613 26.216 170.637 26.216C169.517 26.216 168.493 25.928 167.565 25.352C166.637 24.776 165.901 23.968 165.357 22.928C164.829 21.872 164.565 20.664 164.565 19.304C164.565 17.96 164.829 16.768 165.357 15.728C165.901 14.688 166.629 13.888 167.541 13.328C168.469 12.768 169.501 12.488 170.637 12.488ZM175.029 19.352C175.029 18.536 174.869 17.84 174.549 17.264C174.229 16.672 173.797 16.224 173.253 15.92C172.709 15.6 172.125 15.44 171.501 15.44C170.877 15.44 170.301 15.592 169.773 15.896C169.245 16.2 168.813 16.648 168.477 17.24C168.157 17.816 167.997 18.504 167.997 19.304C167.997 20.104 168.157 20.808 168.477 21.416C168.813 22.008 169.245 22.464 169.773 22.784C170.317 23.104 170.893 23.264 171.501 23.264C172.125 23.264 172.709 23.112 173.253 22.808C173.797 22.488 174.229 22.04 174.549 21.464C174.869 20.872 175.029 20.168 175.029 19.352ZM189.782 12.512C191.366 12.512 192.646 13.016 193.622 14.024C194.598 15.016 195.086 16.408 195.086 18.2V26H191.726V18.656C191.726 17.6 191.462 16.792 190.934 16.232C190.406 15.656 189.686 15.368 188.774 15.368C187.846 15.368 187.11 15.656 186.566 16.232C186.038 16.792 185.774 17.6 185.774 18.656V26H182.414V12.704H185.774V14.36C186.222 13.784 186.79 13.336 187.478 13.016C188.182 12.68 188.95 12.512 189.782 12.512Z" fill="black"/>
<rect y="54" width="753" height="12" rx="6" fill="#EDECEC"/>
<rect y="54" width="660" height="12" rx="6" fill="#FF6300"/>
<g filter="url(#filter0_d_1_1751)">
<circle cx="657" cy="60" r="16" fill="#EDECEC"/>
<circle cx="657" cy="60" r="14.5" stroke="#FF6300" stroke-width="3"/>
</g>
<defs>
<filter id="filter0_d_1_1751" x="634" y="41" width="46" height="46" filterUnits="userSpaceOnUse" color-interpolation-filters="sRGB">
<feFlood flood-opacity="0" result="BackgroundImageFix"/>
<feColorMatrix in="SourceAlpha" type="matrix" values="0 0 0 0 0 0 0 0 0 0 0 0 0 0 0 0 0 0 127 0" result="hardAlpha"/>
<feOffset dy="4"/>
<feGaussianBlur stdDeviation="3.5"/>
<feComposite in2="hardAlpha" operator="out"/>
<feColorMatrix type="matrix" values="0 0 0 0 0 0 0 0 0 0 0 0 0 0 0 0 0 0 0.2 0"/>
<feBlend mode="normal" in2="BackgroundImageFix" result="effect1_dropShadow_1_1751"/>
<feBlend mode="normal" in="SourceGraphic" in2="effect1_dropShadow_1_1751" result="shape"/>
</filter>
</defs>
</svg>
