<svg width="753" height="87" viewBox="0 0 753 87" fill="none" xmlns="http://www.w3.org/2000/svg">
<path d="M11.928 22.808H5.256L4.152 26H0.624L6.648 9.224H10.56L16.584 26H13.032L11.928 22.808ZM11.016 20.12L8.592 13.112L6.168 20.12H11.016ZM22.9157 14.624C23.3477 14.016 23.9397 13.512 24.6917 13.112C25.4597 12.696 26.3317 12.488 27.3077 12.488C28.4437 12.488 29.4677 12.768 30.3797 13.328C31.3077 13.888 32.0357 14.688 32.5637 15.728C33.1077 16.752 33.3797 17.944 33.3797 19.304C33.3797 20.664 33.1077 21.872 32.5637 22.928C32.0357 23.968 31.3077 24.776 30.3797 25.352C29.4677 25.928 28.4437 26.216 27.3077 26.216C26.3317 26.216 25.4677 26.016 24.7157 25.616C23.9797 25.216 23.3797 24.712 22.9157 24.104V32.336H19.5557V12.704H22.9157V14.624ZM29.9477 19.304C29.9477 18.504 29.7797 17.816 29.4437 17.24C29.1237 16.648 28.6917 16.2 28.1477 15.896C27.6197 15.592 27.0437 15.44 26.4197 15.44C25.8117 15.44 25.2357 15.6 24.6917 15.92C24.1637 16.224 23.7317 16.672 23.3957 17.264C23.0757 17.856 22.9157 18.552 22.9157 19.352C22.9157 20.152 23.0757 20.848 23.3957 21.44C23.7317 22.032 24.1637 22.488 24.6917 22.808C25.2357 23.112 25.8117 23.264 26.4197 23.264C27.0437 23.264 27.6197 23.104 28.1477 22.784C28.6917 22.464 29.1237 22.008 29.4437 21.416C29.7797 20.824 29.9477 20.12 29.9477 19.304ZM39.9013 14.624C40.3333 14.016 40.9253 13.512 41.6773 13.112C42.4453 12.696 43.3173 12.488 44.2933 12.488C45.4293 12.488 46.4533 12.768 47.3653 13.328C48.2933 13.888 49.0213 14.688 49.5493 15.728C50.0933 16.752 50.3653 17.944 50.3653 19.304C50.3653 20.664 50.0933 21.872 49.5493 22.928C49.0213 23.968 48.2933 24.776 47.3653 25.352C46.4533 25.928 45.4293 26.216 44.2933 26.216C43.3173 26.216 42.4533 26.016 41.7013 25.616C40.9653 25.216 40.3653 24.712 39.9013 24.104V32.336H36.5413V12.704H39.9013V14.624ZM46.9333 19.304C46.9333 18.504 46.7653 17.816 46.4293 17.24C46.1093 16.648 45.6773 16.2 45.1333 15.896C44.6053 15.592 44.0293 15.44 43.4053 15.44C42.7973 15.44 42.2213 15.6 41.6773 15.92C41.1493 16.224 40.7173 16.672 40.3813 17.264C40.0613 17.856 39.9013 18.552 39.9013 19.352C39.9013 20.152 40.0613 20.848 40.3813 21.44C40.7173 22.032 41.1493 22.488 41.6773 22.808C42.2213 23.112 42.7973 23.264 43.4053 23.264C44.0293 23.264 44.6053 23.104 45.1333 22.784C45.6773 22.464 46.1093 22.008 46.4293 21.416C46.7653 20.824 46.9333 20.12 46.9333 19.304ZM65.8217 9.248C67.5817 9.248 69.1257 9.592 70.4537 10.28C71.7977 10.968 72.8297 11.952 73.5497 13.232C74.2857 14.496 74.6537 15.968 74.6537 17.648C74.6537 19.328 74.2857 20.8 73.5497 22.064C72.8297 23.312 71.7977 24.28 70.4537 24.968C69.1257 25.656 67.5817 26 65.8217 26H59.9657V9.248H65.8217ZM65.7017 23.144C67.4617 23.144 68.8217 22.664 69.7817 21.704C70.7417 20.744 71.2217 19.392 71.2217 17.648C71.2217 15.904 70.7417 14.544 69.7817 13.568C68.8217 12.576 67.4617 12.08 65.7017 12.08H63.3257V23.144H65.7017ZM90.2488 19.064C90.2488 19.544 90.2168 19.976 90.1528 20.36H80.4328C80.5128 21.32 80.8488 22.072 81.4408 22.616C82.0328 23.16 82.7608 23.432 83.6248 23.432C84.8728 23.432 85.7608 22.896 86.2888 21.824H89.9128C89.5288 23.104 88.7928 24.16 87.7048 24.992C86.6168 25.808 85.2808 26.216 83.6968 26.216C82.4168 26.216 81.2648 25.936 80.2408 25.376C79.2328 24.8 78.4408 23.992 77.8648 22.952C77.3048 21.912 77.0248 20.712 77.0248 19.352C77.0248 17.976 77.3048 16.768 77.8648 15.728C78.4248 14.688 79.2088 13.888 80.2168 13.328C81.2248 12.768 82.3848 12.488 83.6968 12.488C84.9608 12.488 86.0888 12.76 87.0808 13.304C88.0888 13.848 88.8648 14.624 89.4088 15.632C89.9688 16.624 90.2488 17.768 90.2488 19.064ZM86.7688 18.104C86.7528 17.24 86.4408 16.552 85.8328 16.04C85.2248 15.512 84.4808 15.248 83.6008 15.248C82.7688 15.248 82.0648 15.504 81.4888 16.016C80.9288 16.512 80.5848 17.208 80.4568 18.104H86.7688ZM98.5093 26.216C97.4213 26.216 96.4453 26.024 95.5813 25.64C94.7173 25.24 94.0293 24.704 93.5173 24.032C93.0213 23.36 92.7493 22.616 92.7013 21.8H96.0853C96.1493 22.312 96.3973 22.736 96.8293 23.072C97.2773 23.408 97.8293 23.576 98.4853 23.576C99.1253 23.576 99.6213 23.448 99.9733 23.192C100.341 22.936 100.525 22.608 100.525 22.208C100.525 21.776 100.301 21.456 99.8533 21.248C99.4213 21.024 98.7253 20.784 97.7653 20.528C96.7733 20.288 95.9573 20.04 95.3173 19.784C94.6933 19.528 94.1493 19.136 93.6853 18.608C93.2373 18.08 93.0133 17.368 93.0133 16.472C93.0133 15.736 93.2213 15.064 93.6373 14.456C94.0693 13.848 94.6773 13.368 95.4613 13.016C96.2613 12.664 97.1973 12.488 98.2693 12.488C99.8533 12.488 101.117 12.888 102.061 13.688C103.005 14.472 103.525 15.536 103.621 16.88H100.405C100.357 16.352 100.133 15.936 99.7333 15.632C99.3493 15.312 98.8293 15.152 98.1733 15.152C97.5653 15.152 97.0933 15.264 96.7573 15.488C96.4373 15.712 96.2773 16.024 96.2773 16.424C96.2773 16.872 96.5013 17.216 96.9493 17.456C97.3973 17.68 98.0933 17.912 99.0373 18.152C99.9973 18.392 100.789 18.64 101.413 18.896C102.037 19.152 102.573 19.552 103.021 20.096C103.485 20.624 103.725 21.328 103.741 22.208C103.741 22.976 103.525 23.664 103.093 24.272C102.677 24.88 102.069 25.36 101.269 25.712C100.485 26.048 99.5653 26.216 98.5093 26.216ZM108.923 11.12C108.331 11.12 107.835 10.936 107.435 10.568C107.051 10.184 106.859 9.712 106.859 9.152C106.859 8.592 107.051 8.128 107.435 7.76C107.835 7.376 108.331 7.184 108.923 7.184C109.515 7.184 110.003 7.376 110.387 7.76C110.787 8.128 110.987 8.592 110.987 9.152C110.987 9.712 110.787 10.184 110.387 10.568C110.003 10.936 109.515 11.12 108.923 11.12ZM110.579 12.704V26H107.219V12.704H110.579ZM119.827 12.488C120.819 12.488 121.691 12.688 122.443 13.088C123.195 13.472 123.787 13.976 124.219 14.6V12.704H127.603V26.096C127.603 27.328 127.355 28.424 126.859 29.384C126.363 30.36 125.619 31.128 124.627 31.688C123.635 32.264 122.435 32.552 121.027 32.552C119.139 32.552 117.587 32.112 116.371 31.232C115.171 30.352 114.491 29.152 114.331 27.632H117.667C117.843 28.24 118.219 28.72 118.795 29.072C119.387 29.44 120.099 29.624 120.931 29.624C121.907 29.624 122.699 29.328 123.307 28.736C123.915 28.16 124.219 27.28 124.219 26.096V24.032C123.787 24.656 123.187 25.176 122.419 25.592C121.667 26.008 120.803 26.216 119.827 26.216C118.707 26.216 117.683 25.928 116.755 25.352C115.827 24.776 115.091 23.968 114.547 22.928C114.019 21.872 113.755 20.664 113.755 19.304C113.755 17.96 114.019 16.768 114.547 15.728C115.091 14.688 115.819 13.888 116.731 13.328C117.659 12.768 118.691 12.488 119.827 12.488ZM124.219 19.352C124.219 18.536 124.059 17.84 123.739 17.264C123.419 16.672 122.987 16.224 122.443 15.92C121.899 15.6 121.315 15.44 120.691 15.44C120.067 15.44 119.491 15.592 118.963 15.896C118.435 16.2 118.003 16.648 117.667 17.24C117.347 17.816 117.187 18.504 117.187 19.304C117.187 20.104 117.347 20.808 117.667 21.416C118.003 22.008 118.435 22.464 118.963 22.784C119.507 23.104 120.083 23.264 120.691 23.264C121.315 23.264 121.899 23.112 122.443 22.808C122.987 22.488 123.419 22.04 123.739 21.464C124.059 20.872 124.219 20.168 124.219 19.352ZM138.973 12.512C140.557 12.512 141.837 13.016 142.813 14.024C143.789 15.016 144.277 16.408 144.277 18.2V26H140.917V18.656C140.917 17.6 140.653 16.792 140.125 16.232C139.597 15.656 138.877 15.368 137.965 15.368C137.037 15.368 136.301 15.656 135.757 16.232C135.229 16.792 134.965 17.6 134.965 18.656V26H131.605V12.704H134.965V14.36C135.413 13.784 135.981 13.336 136.669 13.016C137.373 12.68 138.141 12.512 138.973 12.512Z" fill="black"/>
<rect y="54" width="753" height="12" rx="6" fill="#EDECEC"/>
<rect y="54" width="701" height="12" rx="6" fill="#FF6300"/>
<g filter="url(#filter0_d_1_1756)">
<circle cx="700" cy="60" r="16" fill="#EDECEC"/>
<circle cx="700" cy="60" r="14.5" stroke="#FF6300" stroke-width="3"/>
</g>
<defs>
<filter id="filter0_d_1_1756" x="677" y="41" width="46" height="46" filterUnits="userSpaceOnUse" color-interpolation-filters="sRGB">
<feFlood flood-opacity="0" result="BackgroundImageFix"/>
<feColorMatrix in="SourceAlpha" type="matrix" values="0 0 0 0 0 0 0 0 0 0 0 0 0 0 0 0 0 0 127 0" result="hardAlpha"/>
<feOffset dy="4"/>
<feGaussianBlur stdDeviation="3.5"/>
<feComposite in2="hardAlpha" operator="out"/>
<feColorMatrix type="matrix" values="0 0 0 0 0 0 0 0 0 0 0 0 0 0 0 0 0 0 0.2 0"/>
<feBlend mode="normal" in2="BackgroundImageFix" result="effect1_dropShadow_1_1756"/>
<feBlend mode="normal" in="SourceGraphic" in2="effect1_dropShadow_1_1756" result="shape"/>
</filter>
</defs>
</svg>
